# AST/ASF file generated using VICON BodyLanguage
# -----------------------------------------------
:version 1.10
:name VICON
:units
  mass 1.0
  length 0.45
  angle deg
:documentation
   .ast/.asf automatically generated from VICON data using
   VICON BodyBuilder and BodyLanguage model FoxedUp or BRILLIANT.MOD
:root
   order TX TY TZ RX RY RZ
   axis XYZ
   position 0 0 0  
   orientation 0 0 0 
:bonedata
  begin
     id 1 
     name lhipjoint
     direction 0.661853 -0.702389 0.261917 
     length 2.64193 
     axis 0 0 0  XYZ
  end
  begin
     id 2 
     name lfemur
     direction 0.34202 -0.939693 0  
     length 7.01722  
     axis 0 0 20  XYZ
    dof rx ry rz
    limits (-160.0 20.0)
           (-70.0 70.0)
           (-60.0 70.0)
  end
  begin
     id 3 
     name ltibia
     direction 0.34202 -0.939693 0   
     length 8.25008   
     axis 0 0 20   XYZ
    dof rx
    limits (-10.0 170.0)
  end
  begin
     id 4 
     name lfoot
     direction 0.0709916 -0.195048 0.978221   
     length 2.31941   
     axis -90 7.62852e-016 20   XYZ
    dof rx rz
    limits (-45.0 90.0)
           (-70.0 20.0)
  end
  begin
     id 5 
     name ltoes
     direction 1.53586e-011 -4.22017e-011 1   
     length 1.16486   
     axis -90 7.62852e-016 20   XYZ
    dof rx
    limits (-90.0 20.0)
  end
  begin
     id 6 
     name rhipjoint
     direction -0.638185 -0.721362 0.268992   
     length 2.57244  
     axis 0 0 0  XYZ 
  end
  begin
     id 7 
     name rfemur
     direction -0.34202 -0.939693 0   
     length 7.07017   
     axis 0 0 -20   XYZ
    dof rx ry rz
    limits (-160.0 20.0)
           (-70.0 70.0)
           (-70.0 60.0)
  end
  begin
     id 8 
     name rtibia
     direction -0.34202 -0.939693 0   
     length 8.20386   
     axis 0 0 -20   XYZ
    dof rx
    limits (-10.0 170.0)
 end
 begin
     id 9 
     name rfoot
     direction -0.0822429 -0.225961 0.970658   
     length 2.32215  
     axis -90 -7.62852e-016 -20   XYZ
    dof rx rz
    limits (-45.0 90.0)
           (-20.0 70.0)
  end
  begin
     id 10 
     name rtoes
     direction -1.53597e-011 -4.21689e-011 1   
     length 1.16333   
     axis -90 -7.62852e-016 -20   XYZ
    dof rx
    limits (-90.0 20.0)
  end
  begin
     id 11 
     name lowerback
     direction -0.0131557 0.998589 -0.0514484   
     length 2.14993   
     axis 0 0 0   XYZ
    dof rx ry rz
    limits (-20.0 45.0)
           (-30.0 30.0)
           (-30.0 30.0)
  end
  begin
     id 12 
     name upperback
     direction -0.000776481 0.999993 0.00352685   
     length 2.15301   
     axis 0 0 0   XYZ
    dof rx ry rz
    limits (-20.0 45.0)
           (-30.0 30.0)
           (-30.0 30.0)
  end
  begin
     id 13 
     name thorax
     direction 0.00438186 0.999609 0.0276143   
     length 2.15424   
     axis 0 0 0   XYZ
    dof rx ry rz
    limits (-20.0 45.0)
           (-30.0 30.0)
           (-30.0 30.0)
  end
  begin
     id 14 
     name lowerneck
     direction -0.0488006 0.998094 0.0377807   
     length 1.90481   
     axis 0 0 0   XYZ
    dof rx ry rz
    limits (-20.0 45.0)
           (-30.0 30.0)
           (-30.0 30.0)
  end
  begin
     id 15 
     name upperneck
     direction 0.0443769 0.990702 -0.12861   
     length 1.91305   
     axis 0 0 0   XYZ
    dof rx ry rz
    limits (-20.0 45.0)
           (-30.0 30.0)
           (-30.0 30.0)
  end
  begin
     id 16
     name head
     direction 0.0165599 0.998647 -0.0492982  
     length 1.92369  
     axis 0 0 0   XYZ
    dof rx ry rz
    limits (-20.0 45.0)
           (-30.0 30.0)
           (-30.0 30.0)
  end
  begin
     id 17 
     name lclavicle
     direction 0.911936 0.410197 -0.0105506  
     length 3.52622  
     axis 0 0 0   XYZ
    dof ry rz
    limits (-20.0 10.0)
           (0.0 20.0)
  end
  begin
     id 18 
     name lhumerus
     direction 1 -4.48974e-011 -2.48591e-028   
     length 5.47651   
     axis 180 -30 -90   XYZ
    dof rx ry rz
    limits (-60.0 90.0)
           (-90.0 90.0)
           (-90.0 90.0)
  end
  begin
     id 19
     name lradius
     direction 1 -4.48938e-011 -4.40099e-027   
     length 3.09058   
     axis 180 -30 -90   XYZ
    dof rx
    limits (-10.0 170.0)
  end
  begin
     id 20
     name lwrist
     direction 1 -4.49042e-011 -2.99852e-027   
     length 1.54529   
     axis 1.95339e-015 90 90   XYZ
    dof ry
    limits (-180.0 0.0)
 end
  begin
     id 21 
     name lhand
     direction 1 -4.48815e-011 -5.98193e-027   
     length 0.771611   
     axis 3.82337e-015 90 90   XYZ
    dof rx rz
    limits (-90.0 90.0)
           (-45.0 45.0)
  end
  begin
     id 22 
     name lfingers
     direction 1 -4.49034e-011 -1.1993e-026   
     length 0.622093   
     axis 7.64668e-015 90 90   XYZ
    dof rx
    limits (0.0 90.0)
  end
  begin
     id 23
     name lthumb
     direction 0.707107 -6.34867e-011 0.707107   
     length 0.893204   
     axis -90 45 -1.62303e-014   XYZ
    dof rx rz
    limits (-45.0 45.0)
           (-45.0 45.0)
  end
  begin
     id 24 
     name rclavicle
     direction -0.93442 0.355634 -0.0195692   
     length 3.62463  
     axis 0 0 0   XYZ 
    dof ry rz
    limits (-10.0 20.0)
           (-20.0 0.0)
  end
  begin
     id 25 
     name rhumerus
     direction -1 -4.48957e-011 -1.19147e-027  
     length 5.14182   
     axis 180 30 90   XYZ
    dof rx ry rz
    limits (-90.0 60.0)
           (-90.0 90.0)
           (-90.0 90.0)
  end
  begin
     id 26 
     name rradius
     direction -1 -4.48952e-011 -3.81062e-027   
     length 3.35565   
     axis 180 30 90   XYZ
    dof rx
    limits (-10.0 170.0)
  end
  begin
     id 27 
     name rwrist
     direction -1 -4.48973e-011 -2.99621e-027   
     length 1.67782   
     axis 1.95339e-015 -90 -90   XYZ
    dof ry
    limits (-180.0 0.0)
  end
  begin
     id 28
     name rhand
     direction -1 -4.48895e-011 -5.98727e-027   
     length 0.801042   
     axis 3.82337e-015 -90 -90   XYZ
    dof rx rz
    limits (-90.0 90.0)
           (-45.0 45.0)
  end
  begin
     id 29
     name rfingers
     direction -1 -4.49065e-011 -1.19972e-026   
     length 0.645821   
     axis 7.64668e-015 -90 -90   XYZ
    dof rx
    limits (0.0 90.0)
  end
  begin
     id 30
     name rthumb
     direction -0.707107 -6.34957e-011 0.707107   
     length 0.927273   
     axis -90 -45 1.62303e-014   XYZ
    dof rx rz
    limits (-45.0 45.0)
           (-45.0 45.0)
  end
:hierarchy
  begin
    root lhipjoint rhipjoint lowerback
    lhipjoint lfemur
    lfemur ltibia
    ltibia lfoot
    lfoot ltoes
    rhipjoint rfemur
    rfemur rtibia
    rtibia rfoot
    rfoot rtoes
    lowerback upperback
    upperback thorax
    thorax lowerneck lclavicle rclavicle
    lowerneck upperneck
    upperneck head
    lclavicle lhumerus
    lhumerus lradius
    lradius lwrist
    lwrist lhand lthumb
    lhand lfingers
    rclavicle rhumerus
    rhumerus rradius
    rradius rwrist
    rwrist rhand rthumb
    rhand rfingers
  end

#!OML:ASF E:\Style4\Style4.ASF
:FULLY-SPECIFIED
:DEGREES
357
root 0.212517 16.8236 -0.732508 8.19214 -2.49309 2.26655
lowerback 11.3674 1.70161 -1.4081
upperback -0.286855 2.07764 0.065301
thorax -6.73978 1.06442 0.508988
lowerneck 4.81329 -3.6015 -5.68431
upperneck -1.00833 -5.05854 3.20325
head -0.902394 -2.55097 2.08542
rclavicle -7.55382e-015 3.57812e-015
rhumerus -48.502 34.593 -101.028
rradius 56.2575
rwrist -31.8291
rhand -15.0088 25.7884
rfingers 7.12502
rthumb 11.1562 -3.89503
lclavicle -7.55382e-015 3.57812e-015
lhumerus -48.882 -38.8284 104.604
lradius 59.2509
lwrist 17.0022
lhand -10.4472 23.766
lfingers 7.12502
lthumb 15.553 53.1606
rfemur -32.2427 3.90735 14.9581
rtibia 54.2866
rfoot -27.5569 -14.967
rtoes -16.3084
lfemur -30.7885 -0.337821 -22.215
ltibia 53.2803
lfoot -29.3102 8.65506
ltoes -17.3771
358
root 0.214504 16.8346 -0.730898 8.20878 -2.53316 2.31664
lowerback 11.2757 1.73586 -1.42123
upperback -0.273995 2.12111 0.0369442
thorax -6.67466 1.08547 0.482076
lowerneck 4.74457 -3.64443 -5.67864
upperneck -0.913674 -5.11185 3.22806
head -0.857404 -2.57855 2.08921
rclavicle -1.0138e-014 3.97569e-015
rhumerus -48.5305 34.7103 -101.021
rradius 56.418
rwrist -31.9977
rhand -14.9805 25.7748
rfingers 7.12502
rthumb 11.1835 -3.90713
lclavicle -1.0138e-014 3.97569e-015
lhumerus -48.9144 -39.2669 104.709
lradius 59.2211
lwrist 17.2341
lhand -10.3917 23.808
lfingers 7.12502
lthumb 15.6065 53.1984
rfemur -32.1933 3.90776 14.8817
rtibia 54.1604
rfoot -27.5072 -14.9035
rtoes -16.1713
lfemur -30.7644 -0.330581 -22.2778
ltibia 53.1506
lfoot -29.2119 8.72074
ltoes -17.0433
359
root 0.218263 16.8445 -0.730155 8.22617 -2.59958 2.35555
lowerback 11.2264 1.74369 -1.44006
upperback -0.287485 2.12909 0.0255832
thorax -6.66155 1.08991 0.480589
lowerneck 4.76047 -3.63271 -5.68318
upperneck -0.944168 -5.09706 3.23291
head -0.870342 -2.57102 2.09252
rclavicle 1.55052e-014 -4.37326e-015
rhumerus -48.6414 34.9635 -101.076
rradius 56.5808
rwrist -32.1937
rhand -14.8741 25.7934
rfingers 7.12502
rthumb 11.2862 -3.88295
lclavicle 1.55052e-014 -4.37326e-015
lhumerus -48.8976 -39.5584 104.721
lradius 59.1843
lwrist 17.4324
lhand -10.0704 23.7391
lfingers 7.12502
lthumb 15.9158 53.1051
rfemur -32.1474 3.94494 14.7924
rtibia 54.0443
rfoot -27.6243 -14.6157
rtoes -15.1055
lfemur -30.7328 -0.289786 -22.3449
ltibia 53.0193
lfoot -29.0875 8.8114
ltoes -16.6984
360
root 0.22059 16.8477 -0.730738 8.22075 -2.69347 2.36947
lowerback 11.2561 1.76765 -1.44173
upperback -0.326355 2.15949 0.0170428
thorax -6.72005 1.10499 0.465711
lowerneck 4.78085 -3.63551 -5.66573
upperneck -0.945812 -5.10137 3.20832
head -0.875144 -2.57297 2.08207
rclavicle -5.36719e-015 5.1684e-015
rhumerus -48.7633 35.1651 -101.134
rradius 56.7733
rwrist -32.4082
rhand -14.8585 25.8285
rfingers 7.12502
rthumb 11.3012 -3.847
lclavicle -5.36719e-015 5.1684e-015
lhumerus -48.8804 -39.8106 104.692
lradius 59.1736
lwrist 17.6161
lhand -9.64731 23.6117
lfingers 7.12502
lthumb 16.3233 52.9447
rfemur -32.122 4.0015 14.7452
rtibia 53.9288
rfoot -27.5428 -14.5447
rtoes -14.9995
lfemur -30.6287 -0.233726 -22.3884
ltibia 52.8906
lfoot -29.0471 8.84743
ltoes -16.8211
361
root 0.221621 16.8508 -0.73072 8.19708 -2.75188 2.36785
lowerback 11.2974 1.77637 -1.44635
upperback -0.363224 2.17064 0.0319698
thorax -6.78363 1.11118 0.480105
lowerneck 4.78137 -3.63666 -5.65862
upperneck -0.883871 -5.10427 3.14035
head -0.857148 -2.574 2.05741
rclavicle 7.25564e-015 -1.27222e-014
rhumerus -48.9115 35.4176 -101.196
rradius 56.9956
rwrist -32.6152
rhand -14.8937 25.6997
rfingers 7.12502
rthumb 11.2672 -3.97768
lclavicle 7.25564e-015 -1.27222e-014
lhumerus -48.9127 -40.0519 104.695
lradius 59.2399
lwrist 17.8842
lhand -9.37809 23.422
lfingers 7.12502
lthumb 16.5825 52.7335
rfemur -32.0591 3.9913 14.752
rtibia 53.8023
rfoot -27.3119 -14.7094
rtoes -15.6151
lfemur -30.5061 -0.194126 -22.3955
ltibia 52.7545
lfoot -29.0667 8.82185
ltoes -16.8134
362
root 0.221856 16.8598 -0.729031 8.18373 -2.777 2.28545
lowerback 11.2946 1.77918 -1.38128
upperback -0.377614 2.18647 0.0811241
thorax -6.79714 1.11768 0.492313
lowerneck 4.74611 -3.61572 -5.71122
upperneck -0.815935 -5.078 3.13584
head -0.829676 -2.56109 2.06254
rclavicle -9.34288e-015 4.77083e-015
rhumerus -49.0016 35.6431 -101.198
rradius 57.2003
rwrist -32.8403
rhand -14.957 25.6941
rfingers 7.12502
rthumb 11.2062 -3.98664
lclavicle -9.34288e-015 4.77083e-015
lhumerus -48.9596 -40.4459 104.753
lradius 59.3504
lwrist 18.2998
lhand -9.15448 23.1328
lfingers 7.12502
lthumb 16.7977 52.4262
rfemur -31.9482 4.01516 14.8415
rtibia 53.656
rfoot -27.1983 -14.762
rtoes -15.7032
lfemur -30.4065 -0.161227 -22.3031
ltibia 52.6062
lfoot -28.9172 8.98936
ltoes -17.4133
363
root 0.221413 16.8674 -0.728197 8.17454 -2.80944 2.2189
lowerback 11.2682 1.80121 -1.31194
upperback -0.376014 2.22593 0.0880468
thorax -6.7789 1.13466 0.454704
lowerneck 4.76731 -3.61761 -5.69359
upperneck -0.84377 -5.07971 3.17698
head -0.841555 -2.56249 2.07402
rclavicle -1.64991e-014 1.19271e-015
rhumerus -48.9701 35.7621 -101.135
rradius 57.4106
rwrist -33.0011
rhand -15.0329 25.7781
rfingers 7.12502
rthumb 11.133 -3.90661
lclavicle -1.64991e-014 1.19271e-015
lhumerus -49.0029 -40.9211 104.753
lradius 59.4876
lwrist 18.801
lhand -8.94539 22.8397
lfingers 7.12502
lthumb 16.999 52.1159
rfemur -31.8491 4.08781 14.8935
rtibia 53.5162
rfoot -27.2718 -14.5266
rtoes -14.7209
lfemur -30.2859 -0.118189 -22.2205
ltibia 52.431
lfoot -28.7881 8.94605
ltoes -17.2027
364
root 0.222026 16.8729 -0.72981 8.14671 -2.83073 2.2282
lowerback 11.2725 1.83138 -1.27261
upperback -0.36491 2.26888 0.0535315
thorax -6.76739 1.15356 0.389043
lowerneck 4.78363 -3.64514 -5.62085
upperneck -0.881871 -5.11309 3.16469
head -0.856781 -2.57899 2.05877
rclavicle -7.25564e-015 -3.57812e-015
rhumerus -48.9201 35.8948 -101.053
rradius 57.6642
rwrist -33.0749
rhand -15.0651 25.7339
rfingers 7.12502
rthumb 11.102 -3.95246
lclavicle -7.25564e-015 -3.57812e-015
lhumerus -49.0155 -41.3945 104.685
lradius 59.6112
lwrist 19.1523
lhand -8.6109 22.4157
lfingers 7.12502
lthumb 17.321 51.6639
rfemur -31.7562 4.11638 14.8659
rtibia 53.3973
rfoot -27.3641 -14.2916
rtoes -14.1906
lfemur -30.1217 -0.0822586 -22.2317
ltibia 52.2321
lfoot -28.7518 8.81893
ltoes -16.9681
365
root 0.223214 16.8809 -0.732184 8.11843 -2.84481 2.32431
lowerback 11.2798 1.84195 -1.33012
upperback -0.350192 2.27265 0.0167609
thorax -6.75675 1.15661 0.382129
lowerneck 4.65154 -3.64508 -5.60213
upperneck -0.761632 -5.10626 3.13525
head -0.797229 -2.57563 2.03945
rclavicle -3.37934e-015 -9.14409e-015
rhumerus -48.8715 36.1547 -100.974
rradius 57.9452
rwrist -33.1046
rhand -15.0835 25.7093
rfingers 7.12502
rthumb 11.0843 -3.97799
lclavicle -3.37934e-015 -9.14409e-015
lhumerus -48.9526 -41.8044 104.547
lradius 59.7934
lwrist 19.4618
lhand -8.09834 22.1091
lfingers 7.12502
lthumb 17.8142 51.3132
rfemur -31.6708 4.0945 14.7492
rtibia 53.2911
rfoot -27.4432 -14.1331
rtoes -13.9915
lfemur -29.9757 -0.100978 -22.3431
ltibia 52.0283
lfoot -28.7182 8.87496
ltoes -17.1813
